<mxfile host="app.diagrams.net" agent="Mozilla/5.0 (Windows NT 10.0; Win64; x64) AppleWebKit/537.36 (KHTML, like Gecko) Chrome/133.0.0.0 Safari/537.36" version="26.0.16">
  <diagram name="Page-1" id="5gsPL8GeEmGx-AVMJ_zo">
    <mxGraphModel dx="683" dy="1537" grid="1" gridSize="10" guides="1" tooltips="1" connect="1" arrows="1" fold="1" page="1" pageScale="1" pageWidth="827" pageHeight="1169" math="0" shadow="0">
      <root>
        <mxCell id="0" />
        <mxCell id="1" parent="0" />
        <mxCell id="UaO71o3nP_UbllHQvxvq-115" style="edgeStyle=orthogonalEdgeStyle;rounded=0;orthogonalLoop=1;jettySize=auto;html=1;exitX=0.5;exitY=0;exitDx=0;exitDy=0;entryX=0.5;entryY=0;entryDx=0;entryDy=0;" edge="1" parent="1" source="UaO71o3nP_UbllHQvxvq-1" target="UaO71o3nP_UbllHQvxvq-114">
          <mxGeometry relative="1" as="geometry" />
        </mxCell>
        <mxCell id="UaO71o3nP_UbllHQvxvq-116" style="edgeStyle=orthogonalEdgeStyle;rounded=0;orthogonalLoop=1;jettySize=auto;html=1;exitX=0.5;exitY=0;exitDx=0;exitDy=0;entryX=0.5;entryY=0;entryDx=0;entryDy=0;" edge="1" parent="1" source="UaO71o3nP_UbllHQvxvq-1" target="UaO71o3nP_UbllHQvxvq-114">
          <mxGeometry relative="1" as="geometry" />
        </mxCell>
        <mxCell id="UaO71o3nP_UbllHQvxvq-118" style="edgeStyle=orthogonalEdgeStyle;rounded=0;orthogonalLoop=1;jettySize=auto;html=1;exitX=0;exitY=0.5;exitDx=0;exitDy=0;entryX=0;entryY=0.5;entryDx=0;entryDy=0;" edge="1" parent="1" source="UaO71o3nP_UbllHQvxvq-1" target="UaO71o3nP_UbllHQvxvq-114">
          <mxGeometry relative="1" as="geometry" />
        </mxCell>
        <mxCell id="UaO71o3nP_UbllHQvxvq-1" value="" style="ellipse;whiteSpace=wrap;html=1;aspect=fixed;" vertex="1" parent="1">
          <mxGeometry x="200" y="60" width="60" height="60" as="geometry" />
        </mxCell>
        <mxCell id="UaO71o3nP_UbllHQvxvq-8" value="" style="group" vertex="1" connectable="0" parent="1">
          <mxGeometry x="200" y="40" width="60" height="10" as="geometry" />
        </mxCell>
        <mxCell id="UaO71o3nP_UbllHQvxvq-2" value="" style="rounded=0;whiteSpace=wrap;html=1;" vertex="1" parent="UaO71o3nP_UbllHQvxvq-8">
          <mxGeometry width="60" height="10" as="geometry" />
        </mxCell>
        <mxCell id="UaO71o3nP_UbllHQvxvq-3" value="" style="endArrow=none;html=1;rounded=0;exitX=0.25;exitY=1;exitDx=0;exitDy=0;entryX=0.25;entryY=0;entryDx=0;entryDy=0;" edge="1" parent="UaO71o3nP_UbllHQvxvq-8">
          <mxGeometry width="50" height="50" relative="1" as="geometry">
            <mxPoint x="20" y="10" as="sourcePoint" />
            <mxPoint x="20" as="targetPoint" />
          </mxGeometry>
        </mxCell>
        <mxCell id="UaO71o3nP_UbllHQvxvq-4" value="" style="endArrow=none;html=1;rounded=0;exitX=0.5;exitY=1;exitDx=0;exitDy=0;" edge="1" parent="UaO71o3nP_UbllHQvxvq-8" source="UaO71o3nP_UbllHQvxvq-2">
          <mxGeometry width="50" height="50" relative="1" as="geometry">
            <mxPoint x="-20" y="50" as="sourcePoint" />
            <mxPoint x="30" as="targetPoint" />
          </mxGeometry>
        </mxCell>
        <mxCell id="UaO71o3nP_UbllHQvxvq-5" value="" style="endArrow=none;html=1;rounded=0;exitX=0.5;exitY=1;exitDx=0;exitDy=0;" edge="1" parent="UaO71o3nP_UbllHQvxvq-8">
          <mxGeometry width="50" height="50" relative="1" as="geometry">
            <mxPoint x="40" y="10" as="sourcePoint" />
            <mxPoint x="40" as="targetPoint" />
            <Array as="points">
              <mxPoint x="40" />
            </Array>
          </mxGeometry>
        </mxCell>
        <mxCell id="UaO71o3nP_UbllHQvxvq-6" value="" style="endArrow=none;html=1;rounded=0;exitX=0.5;exitY=1;exitDx=0;exitDy=0;" edge="1" parent="UaO71o3nP_UbllHQvxvq-8">
          <mxGeometry width="50" height="50" relative="1" as="geometry">
            <mxPoint x="49.93000000000001" y="10" as="sourcePoint" />
            <mxPoint x="49.93000000000001" as="targetPoint" />
            <Array as="points">
              <mxPoint x="49.93000000000001" />
            </Array>
          </mxGeometry>
        </mxCell>
        <mxCell id="UaO71o3nP_UbllHQvxvq-7" value="" style="endArrow=none;html=1;rounded=0;exitX=0.25;exitY=1;exitDx=0;exitDy=0;entryX=0.25;entryY=0;entryDx=0;entryDy=0;" edge="1" parent="UaO71o3nP_UbllHQvxvq-8">
          <mxGeometry width="50" height="50" relative="1" as="geometry">
            <mxPoint x="10" y="10" as="sourcePoint" />
            <mxPoint x="10" as="targetPoint" />
          </mxGeometry>
        </mxCell>
        <mxCell id="UaO71o3nP_UbllHQvxvq-9" value="" style="group" vertex="1" connectable="0" parent="1">
          <mxGeometry x="200" y="130" width="60" height="10" as="geometry" />
        </mxCell>
        <mxCell id="UaO71o3nP_UbllHQvxvq-10" value="" style="rounded=0;whiteSpace=wrap;html=1;" vertex="1" parent="UaO71o3nP_UbllHQvxvq-9">
          <mxGeometry width="60" height="10" as="geometry" />
        </mxCell>
        <mxCell id="UaO71o3nP_UbllHQvxvq-11" value="" style="endArrow=none;html=1;rounded=0;exitX=0.25;exitY=1;exitDx=0;exitDy=0;entryX=0.25;entryY=0;entryDx=0;entryDy=0;" edge="1" parent="UaO71o3nP_UbllHQvxvq-9">
          <mxGeometry width="50" height="50" relative="1" as="geometry">
            <mxPoint x="20" y="10" as="sourcePoint" />
            <mxPoint x="20" as="targetPoint" />
          </mxGeometry>
        </mxCell>
        <mxCell id="UaO71o3nP_UbllHQvxvq-12" value="" style="endArrow=none;html=1;rounded=0;exitX=0.5;exitY=1;exitDx=0;exitDy=0;" edge="1" parent="UaO71o3nP_UbllHQvxvq-9" source="UaO71o3nP_UbllHQvxvq-10">
          <mxGeometry width="50" height="50" relative="1" as="geometry">
            <mxPoint x="-20" y="50" as="sourcePoint" />
            <mxPoint x="30" as="targetPoint" />
          </mxGeometry>
        </mxCell>
        <mxCell id="UaO71o3nP_UbllHQvxvq-13" value="" style="endArrow=none;html=1;rounded=0;exitX=0.5;exitY=1;exitDx=0;exitDy=0;" edge="1" parent="UaO71o3nP_UbllHQvxvq-9">
          <mxGeometry width="50" height="50" relative="1" as="geometry">
            <mxPoint x="40" y="10" as="sourcePoint" />
            <mxPoint x="40" as="targetPoint" />
            <Array as="points">
              <mxPoint x="40" />
            </Array>
          </mxGeometry>
        </mxCell>
        <mxCell id="UaO71o3nP_UbllHQvxvq-14" value="" style="endArrow=none;html=1;rounded=0;exitX=0.5;exitY=1;exitDx=0;exitDy=0;" edge="1" parent="UaO71o3nP_UbllHQvxvq-9">
          <mxGeometry width="50" height="50" relative="1" as="geometry">
            <mxPoint x="49.93000000000001" y="10" as="sourcePoint" />
            <mxPoint x="49.93000000000001" as="targetPoint" />
            <Array as="points">
              <mxPoint x="49.93000000000001" />
            </Array>
          </mxGeometry>
        </mxCell>
        <mxCell id="UaO71o3nP_UbllHQvxvq-15" value="" style="endArrow=none;html=1;rounded=0;exitX=0.25;exitY=1;exitDx=0;exitDy=0;entryX=0.25;entryY=0;entryDx=0;entryDy=0;" edge="1" parent="UaO71o3nP_UbllHQvxvq-9">
          <mxGeometry width="50" height="50" relative="1" as="geometry">
            <mxPoint x="10" y="10" as="sourcePoint" />
            <mxPoint x="10" as="targetPoint" />
          </mxGeometry>
        </mxCell>
        <mxCell id="UaO71o3nP_UbllHQvxvq-16" value="" style="group;rotation=-90;" vertex="1" connectable="0" parent="1">
          <mxGeometry x="250" y="90" width="60" height="10" as="geometry" />
        </mxCell>
        <mxCell id="UaO71o3nP_UbllHQvxvq-17" value="" style="rounded=0;whiteSpace=wrap;html=1;rotation=-90;" vertex="1" parent="UaO71o3nP_UbllHQvxvq-16">
          <mxGeometry width="60" height="10" as="geometry" />
        </mxCell>
        <mxCell id="UaO71o3nP_UbllHQvxvq-18" value="" style="endArrow=none;html=1;rounded=0;exitX=0.25;exitY=1;exitDx=0;exitDy=0;entryX=0.25;entryY=0;entryDx=0;entryDy=0;" edge="1" parent="UaO71o3nP_UbllHQvxvq-16">
          <mxGeometry width="50" height="50" relative="1" as="geometry">
            <mxPoint x="35" y="15" as="sourcePoint" />
            <mxPoint x="25" y="15" as="targetPoint" />
          </mxGeometry>
        </mxCell>
        <mxCell id="UaO71o3nP_UbllHQvxvq-19" value="" style="endArrow=none;html=1;rounded=0;exitX=0.5;exitY=1;exitDx=0;exitDy=0;" edge="1" parent="UaO71o3nP_UbllHQvxvq-16" source="UaO71o3nP_UbllHQvxvq-17">
          <mxGeometry width="50" height="50" relative="1" as="geometry">
            <mxPoint x="75" y="55" as="sourcePoint" />
            <mxPoint x="25" y="5" as="targetPoint" />
          </mxGeometry>
        </mxCell>
        <mxCell id="UaO71o3nP_UbllHQvxvq-20" value="" style="endArrow=none;html=1;rounded=0;exitX=0.5;exitY=1;exitDx=0;exitDy=0;" edge="1" parent="UaO71o3nP_UbllHQvxvq-16">
          <mxGeometry width="50" height="50" relative="1" as="geometry">
            <mxPoint x="35" y="-5" as="sourcePoint" />
            <mxPoint x="25" y="-5" as="targetPoint" />
            <Array as="points">
              <mxPoint x="25" y="-5" />
            </Array>
          </mxGeometry>
        </mxCell>
        <mxCell id="UaO71o3nP_UbllHQvxvq-21" value="" style="endArrow=none;html=1;rounded=0;exitX=0.5;exitY=1;exitDx=0;exitDy=0;" edge="1" parent="UaO71o3nP_UbllHQvxvq-16">
          <mxGeometry width="50" height="50" relative="1" as="geometry">
            <mxPoint x="35" y="-15" as="sourcePoint" />
            <mxPoint x="25" y="-15" as="targetPoint" />
            <Array as="points">
              <mxPoint x="25" y="-15" />
            </Array>
          </mxGeometry>
        </mxCell>
        <mxCell id="UaO71o3nP_UbllHQvxvq-22" value="" style="endArrow=none;html=1;rounded=0;exitX=0.25;exitY=1;exitDx=0;exitDy=0;entryX=0.25;entryY=0;entryDx=0;entryDy=0;" edge="1" parent="UaO71o3nP_UbllHQvxvq-16">
          <mxGeometry width="50" height="50" relative="1" as="geometry">
            <mxPoint x="35" y="25" as="sourcePoint" />
            <mxPoint x="25" y="25" as="targetPoint" />
          </mxGeometry>
        </mxCell>
        <mxCell id="UaO71o3nP_UbllHQvxvq-23" value="" style="endArrow=classic;html=1;rounded=0;entryX=0.5;entryY=0;entryDx=0;entryDy=0;" edge="1" parent="1" target="UaO71o3nP_UbllHQvxvq-1">
          <mxGeometry width="50" height="50" relative="1" as="geometry">
            <mxPoint x="230" as="sourcePoint" />
            <mxPoint x="260" y="-50" as="targetPoint" />
          </mxGeometry>
        </mxCell>
        <mxCell id="UaO71o3nP_UbllHQvxvq-24" value="" style="endArrow=classic;html=1;rounded=0;entryX=0.5;entryY=0;entryDx=0;entryDy=0;" edge="1" parent="1">
          <mxGeometry width="50" height="50" relative="1" as="geometry">
            <mxPoint x="229.86" y="120" as="sourcePoint" />
            <mxPoint x="229.86" y="180" as="targetPoint" />
          </mxGeometry>
        </mxCell>
        <mxCell id="UaO71o3nP_UbllHQvxvq-25" value="" style="curved=1;endArrow=classic;html=1;rounded=0;exitX=1;exitY=0.5;exitDx=0;exitDy=0;" edge="1" parent="1" source="UaO71o3nP_UbllHQvxvq-1">
          <mxGeometry width="50" height="50" relative="1" as="geometry">
            <mxPoint x="150" y="140" as="sourcePoint" />
            <mxPoint x="200" y="90" as="targetPoint" />
            <Array as="points">
              <mxPoint x="360" y="90" />
              <mxPoint x="200" y="140" />
              <mxPoint x="150" y="90" />
            </Array>
          </mxGeometry>
        </mxCell>
        <mxCell id="UaO71o3nP_UbllHQvxvq-26" value="Input" style="text;html=1;align=center;verticalAlign=middle;whiteSpace=wrap;rounded=0;" vertex="1" parent="1">
          <mxGeometry x="220" y="10" width="60" height="30" as="geometry" />
        </mxCell>
        <mxCell id="UaO71o3nP_UbllHQvxvq-27" value="State" style="text;html=1;align=center;verticalAlign=middle;whiteSpace=wrap;rounded=0;" vertex="1" parent="1">
          <mxGeometry x="290" y="60" width="60" height="30" as="geometry" />
        </mxCell>
        <mxCell id="UaO71o3nP_UbllHQvxvq-28" value="Output" style="text;html=1;align=center;verticalAlign=middle;whiteSpace=wrap;rounded=0;" vertex="1" parent="1">
          <mxGeometry x="240" y="140" width="60" height="30" as="geometry" />
        </mxCell>
        <mxCell id="UaO71o3nP_UbllHQvxvq-111" style="edgeStyle=orthogonalEdgeStyle;rounded=0;orthogonalLoop=1;jettySize=auto;html=1;" edge="1" parent="1" source="UaO71o3nP_UbllHQvxvq-29" target="UaO71o3nP_UbllHQvxvq-57">
          <mxGeometry relative="1" as="geometry" />
        </mxCell>
        <mxCell id="UaO71o3nP_UbllHQvxvq-29" value="" style="ellipse;whiteSpace=wrap;html=1;aspect=fixed;" vertex="1" parent="1">
          <mxGeometry x="60" y="260" width="60" height="60" as="geometry" />
        </mxCell>
        <mxCell id="UaO71o3nP_UbllHQvxvq-30" value="" style="group" vertex="1" connectable="0" parent="1">
          <mxGeometry x="60" y="240" width="60" height="10" as="geometry" />
        </mxCell>
        <mxCell id="UaO71o3nP_UbllHQvxvq-31" value="" style="rounded=0;whiteSpace=wrap;html=1;" vertex="1" parent="UaO71o3nP_UbllHQvxvq-30">
          <mxGeometry width="60" height="10" as="geometry" />
        </mxCell>
        <mxCell id="UaO71o3nP_UbllHQvxvq-32" value="" style="endArrow=none;html=1;rounded=0;exitX=0.25;exitY=1;exitDx=0;exitDy=0;entryX=0.25;entryY=0;entryDx=0;entryDy=0;" edge="1" parent="UaO71o3nP_UbllHQvxvq-30">
          <mxGeometry width="50" height="50" relative="1" as="geometry">
            <mxPoint x="20" y="10" as="sourcePoint" />
            <mxPoint x="20" as="targetPoint" />
          </mxGeometry>
        </mxCell>
        <mxCell id="UaO71o3nP_UbllHQvxvq-33" value="" style="endArrow=none;html=1;rounded=0;exitX=0.5;exitY=1;exitDx=0;exitDy=0;" edge="1" parent="UaO71o3nP_UbllHQvxvq-30" source="UaO71o3nP_UbllHQvxvq-31">
          <mxGeometry width="50" height="50" relative="1" as="geometry">
            <mxPoint x="-20" y="50" as="sourcePoint" />
            <mxPoint x="30" as="targetPoint" />
          </mxGeometry>
        </mxCell>
        <mxCell id="UaO71o3nP_UbllHQvxvq-34" value="" style="endArrow=none;html=1;rounded=0;exitX=0.5;exitY=1;exitDx=0;exitDy=0;" edge="1" parent="UaO71o3nP_UbllHQvxvq-30">
          <mxGeometry width="50" height="50" relative="1" as="geometry">
            <mxPoint x="40" y="10" as="sourcePoint" />
            <mxPoint x="40" as="targetPoint" />
            <Array as="points">
              <mxPoint x="40" />
            </Array>
          </mxGeometry>
        </mxCell>
        <mxCell id="UaO71o3nP_UbllHQvxvq-35" value="" style="endArrow=none;html=1;rounded=0;exitX=0.5;exitY=1;exitDx=0;exitDy=0;" edge="1" parent="UaO71o3nP_UbllHQvxvq-30">
          <mxGeometry width="50" height="50" relative="1" as="geometry">
            <mxPoint x="49.93000000000001" y="10" as="sourcePoint" />
            <mxPoint x="49.93000000000001" as="targetPoint" />
            <Array as="points">
              <mxPoint x="49.93000000000001" />
            </Array>
          </mxGeometry>
        </mxCell>
        <mxCell id="UaO71o3nP_UbllHQvxvq-36" value="" style="endArrow=none;html=1;rounded=0;exitX=0.25;exitY=1;exitDx=0;exitDy=0;entryX=0.25;entryY=0;entryDx=0;entryDy=0;" edge="1" parent="UaO71o3nP_UbllHQvxvq-30">
          <mxGeometry width="50" height="50" relative="1" as="geometry">
            <mxPoint x="10" y="10" as="sourcePoint" />
            <mxPoint x="10" as="targetPoint" />
          </mxGeometry>
        </mxCell>
        <mxCell id="UaO71o3nP_UbllHQvxvq-37" value="" style="group" vertex="1" connectable="0" parent="1">
          <mxGeometry x="60" y="330" width="60" height="10" as="geometry" />
        </mxCell>
        <mxCell id="UaO71o3nP_UbllHQvxvq-38" value="" style="rounded=0;whiteSpace=wrap;html=1;" vertex="1" parent="UaO71o3nP_UbllHQvxvq-37">
          <mxGeometry width="60" height="10" as="geometry" />
        </mxCell>
        <mxCell id="UaO71o3nP_UbllHQvxvq-39" value="" style="endArrow=none;html=1;rounded=0;exitX=0.25;exitY=1;exitDx=0;exitDy=0;entryX=0.25;entryY=0;entryDx=0;entryDy=0;" edge="1" parent="UaO71o3nP_UbllHQvxvq-37">
          <mxGeometry width="50" height="50" relative="1" as="geometry">
            <mxPoint x="20" y="10" as="sourcePoint" />
            <mxPoint x="20" as="targetPoint" />
          </mxGeometry>
        </mxCell>
        <mxCell id="UaO71o3nP_UbllHQvxvq-40" value="" style="endArrow=none;html=1;rounded=0;exitX=0.5;exitY=1;exitDx=0;exitDy=0;" edge="1" parent="UaO71o3nP_UbllHQvxvq-37" source="UaO71o3nP_UbllHQvxvq-38">
          <mxGeometry width="50" height="50" relative="1" as="geometry">
            <mxPoint x="-20" y="50" as="sourcePoint" />
            <mxPoint x="30" as="targetPoint" />
          </mxGeometry>
        </mxCell>
        <mxCell id="UaO71o3nP_UbllHQvxvq-41" value="" style="endArrow=none;html=1;rounded=0;exitX=0.5;exitY=1;exitDx=0;exitDy=0;" edge="1" parent="UaO71o3nP_UbllHQvxvq-37">
          <mxGeometry width="50" height="50" relative="1" as="geometry">
            <mxPoint x="40" y="10" as="sourcePoint" />
            <mxPoint x="40" as="targetPoint" />
            <Array as="points">
              <mxPoint x="40" />
            </Array>
          </mxGeometry>
        </mxCell>
        <mxCell id="UaO71o3nP_UbllHQvxvq-42" value="" style="endArrow=none;html=1;rounded=0;exitX=0.5;exitY=1;exitDx=0;exitDy=0;" edge="1" parent="UaO71o3nP_UbllHQvxvq-37">
          <mxGeometry width="50" height="50" relative="1" as="geometry">
            <mxPoint x="49.93000000000001" y="10" as="sourcePoint" />
            <mxPoint x="49.93000000000001" as="targetPoint" />
            <Array as="points">
              <mxPoint x="49.93000000000001" />
            </Array>
          </mxGeometry>
        </mxCell>
        <mxCell id="UaO71o3nP_UbllHQvxvq-43" value="" style="endArrow=none;html=1;rounded=0;exitX=0.25;exitY=1;exitDx=0;exitDy=0;entryX=0.25;entryY=0;entryDx=0;entryDy=0;" edge="1" parent="UaO71o3nP_UbllHQvxvq-37">
          <mxGeometry width="50" height="50" relative="1" as="geometry">
            <mxPoint x="10" y="10" as="sourcePoint" />
            <mxPoint x="10" as="targetPoint" />
          </mxGeometry>
        </mxCell>
        <mxCell id="UaO71o3nP_UbllHQvxvq-44" value="" style="group;rotation=-90;" vertex="1" connectable="0" parent="1">
          <mxGeometry x="110" y="290" width="60" height="10" as="geometry" />
        </mxCell>
        <mxCell id="UaO71o3nP_UbllHQvxvq-45" value="" style="rounded=0;whiteSpace=wrap;html=1;rotation=-90;" vertex="1" parent="UaO71o3nP_UbllHQvxvq-44">
          <mxGeometry width="60" height="10" as="geometry" />
        </mxCell>
        <mxCell id="UaO71o3nP_UbllHQvxvq-46" value="" style="endArrow=none;html=1;rounded=0;exitX=0.25;exitY=1;exitDx=0;exitDy=0;entryX=0.25;entryY=0;entryDx=0;entryDy=0;" edge="1" parent="UaO71o3nP_UbllHQvxvq-44">
          <mxGeometry width="50" height="50" relative="1" as="geometry">
            <mxPoint x="35" y="15" as="sourcePoint" />
            <mxPoint x="25" y="15" as="targetPoint" />
          </mxGeometry>
        </mxCell>
        <mxCell id="UaO71o3nP_UbllHQvxvq-47" value="" style="endArrow=none;html=1;rounded=0;exitX=0.5;exitY=1;exitDx=0;exitDy=0;" edge="1" parent="UaO71o3nP_UbllHQvxvq-44" source="UaO71o3nP_UbllHQvxvq-45">
          <mxGeometry width="50" height="50" relative="1" as="geometry">
            <mxPoint x="75" y="55" as="sourcePoint" />
            <mxPoint x="25" y="5" as="targetPoint" />
          </mxGeometry>
        </mxCell>
        <mxCell id="UaO71o3nP_UbllHQvxvq-48" value="" style="endArrow=none;html=1;rounded=0;exitX=0.5;exitY=1;exitDx=0;exitDy=0;" edge="1" parent="UaO71o3nP_UbllHQvxvq-44">
          <mxGeometry width="50" height="50" relative="1" as="geometry">
            <mxPoint x="35" y="-5" as="sourcePoint" />
            <mxPoint x="25" y="-5" as="targetPoint" />
            <Array as="points">
              <mxPoint x="25" y="-5" />
            </Array>
          </mxGeometry>
        </mxCell>
        <mxCell id="UaO71o3nP_UbllHQvxvq-49" value="" style="endArrow=none;html=1;rounded=0;exitX=0.5;exitY=1;exitDx=0;exitDy=0;" edge="1" parent="UaO71o3nP_UbllHQvxvq-44">
          <mxGeometry width="50" height="50" relative="1" as="geometry">
            <mxPoint x="35" y="-15" as="sourcePoint" />
            <mxPoint x="25" y="-15" as="targetPoint" />
            <Array as="points">
              <mxPoint x="25" y="-15" />
            </Array>
          </mxGeometry>
        </mxCell>
        <mxCell id="UaO71o3nP_UbllHQvxvq-50" value="" style="endArrow=none;html=1;rounded=0;exitX=0.25;exitY=1;exitDx=0;exitDy=0;entryX=0.25;entryY=0;entryDx=0;entryDy=0;" edge="1" parent="UaO71o3nP_UbllHQvxvq-44">
          <mxGeometry width="50" height="50" relative="1" as="geometry">
            <mxPoint x="35" y="25" as="sourcePoint" />
            <mxPoint x="25" y="25" as="targetPoint" />
          </mxGeometry>
        </mxCell>
        <mxCell id="UaO71o3nP_UbllHQvxvq-51" value="" style="endArrow=classic;html=1;rounded=0;entryX=0.5;entryY=0;entryDx=0;entryDy=0;" edge="1" target="UaO71o3nP_UbllHQvxvq-29" parent="1">
          <mxGeometry width="50" height="50" relative="1" as="geometry">
            <mxPoint x="90" y="200" as="sourcePoint" />
            <mxPoint x="120" y="150" as="targetPoint" />
          </mxGeometry>
        </mxCell>
        <mxCell id="UaO71o3nP_UbllHQvxvq-52" value="" style="endArrow=classic;html=1;rounded=0;entryX=0.5;entryY=0;entryDx=0;entryDy=0;" edge="1" parent="1">
          <mxGeometry width="50" height="50" relative="1" as="geometry">
            <mxPoint x="89.86000000000001" y="320" as="sourcePoint" />
            <mxPoint x="89.86000000000001" y="380" as="targetPoint" />
          </mxGeometry>
        </mxCell>
        <mxCell id="UaO71o3nP_UbllHQvxvq-54" value="Input t&lt;sub&gt;1&lt;/sub&gt;" style="text;html=1;align=center;verticalAlign=middle;whiteSpace=wrap;rounded=0;" vertex="1" parent="1">
          <mxGeometry x="90" y="210" width="60" height="30" as="geometry" />
        </mxCell>
        <mxCell id="UaO71o3nP_UbllHQvxvq-55" value="State" style="text;html=1;align=center;verticalAlign=middle;whiteSpace=wrap;rounded=0;" vertex="1" parent="1">
          <mxGeometry x="140" y="260" width="60" height="30" as="geometry" />
        </mxCell>
        <mxCell id="UaO71o3nP_UbllHQvxvq-56" value="Output t&lt;sub&gt;1&lt;/sub&gt;" style="text;html=1;align=center;verticalAlign=middle;whiteSpace=wrap;rounded=0;" vertex="1" parent="1">
          <mxGeometry x="100" y="340" width="60" height="30" as="geometry" />
        </mxCell>
        <mxCell id="UaO71o3nP_UbllHQvxvq-112" style="edgeStyle=orthogonalEdgeStyle;rounded=0;orthogonalLoop=1;jettySize=auto;html=1;" edge="1" parent="1" source="UaO71o3nP_UbllHQvxvq-57" target="UaO71o3nP_UbllHQvxvq-84">
          <mxGeometry relative="1" as="geometry" />
        </mxCell>
        <mxCell id="UaO71o3nP_UbllHQvxvq-57" value="" style="ellipse;whiteSpace=wrap;html=1;aspect=fixed;" vertex="1" parent="1">
          <mxGeometry x="200" y="260" width="60" height="60" as="geometry" />
        </mxCell>
        <mxCell id="UaO71o3nP_UbllHQvxvq-58" value="" style="group" vertex="1" connectable="0" parent="1">
          <mxGeometry x="200" y="240" width="60" height="10" as="geometry" />
        </mxCell>
        <mxCell id="UaO71o3nP_UbllHQvxvq-59" value="" style="rounded=0;whiteSpace=wrap;html=1;" vertex="1" parent="UaO71o3nP_UbllHQvxvq-58">
          <mxGeometry width="60" height="10" as="geometry" />
        </mxCell>
        <mxCell id="UaO71o3nP_UbllHQvxvq-60" value="" style="endArrow=none;html=1;rounded=0;exitX=0.25;exitY=1;exitDx=0;exitDy=0;entryX=0.25;entryY=0;entryDx=0;entryDy=0;" edge="1" parent="UaO71o3nP_UbllHQvxvq-58">
          <mxGeometry width="50" height="50" relative="1" as="geometry">
            <mxPoint x="20" y="10" as="sourcePoint" />
            <mxPoint x="20" as="targetPoint" />
          </mxGeometry>
        </mxCell>
        <mxCell id="UaO71o3nP_UbllHQvxvq-61" value="" style="endArrow=none;html=1;rounded=0;exitX=0.5;exitY=1;exitDx=0;exitDy=0;" edge="1" parent="UaO71o3nP_UbllHQvxvq-58" source="UaO71o3nP_UbllHQvxvq-59">
          <mxGeometry width="50" height="50" relative="1" as="geometry">
            <mxPoint x="-20" y="50" as="sourcePoint" />
            <mxPoint x="30" as="targetPoint" />
          </mxGeometry>
        </mxCell>
        <mxCell id="UaO71o3nP_UbllHQvxvq-62" value="" style="endArrow=none;html=1;rounded=0;exitX=0.5;exitY=1;exitDx=0;exitDy=0;" edge="1" parent="UaO71o3nP_UbllHQvxvq-58">
          <mxGeometry width="50" height="50" relative="1" as="geometry">
            <mxPoint x="40" y="10" as="sourcePoint" />
            <mxPoint x="40" as="targetPoint" />
            <Array as="points">
              <mxPoint x="40" />
            </Array>
          </mxGeometry>
        </mxCell>
        <mxCell id="UaO71o3nP_UbllHQvxvq-63" value="" style="endArrow=none;html=1;rounded=0;exitX=0.5;exitY=1;exitDx=0;exitDy=0;" edge="1" parent="UaO71o3nP_UbllHQvxvq-58">
          <mxGeometry width="50" height="50" relative="1" as="geometry">
            <mxPoint x="49.93000000000001" y="10" as="sourcePoint" />
            <mxPoint x="49.93000000000001" as="targetPoint" />
            <Array as="points">
              <mxPoint x="49.93000000000001" />
            </Array>
          </mxGeometry>
        </mxCell>
        <mxCell id="UaO71o3nP_UbllHQvxvq-64" value="" style="endArrow=none;html=1;rounded=0;exitX=0.25;exitY=1;exitDx=0;exitDy=0;entryX=0.25;entryY=0;entryDx=0;entryDy=0;" edge="1" parent="UaO71o3nP_UbllHQvxvq-58">
          <mxGeometry width="50" height="50" relative="1" as="geometry">
            <mxPoint x="10" y="10" as="sourcePoint" />
            <mxPoint x="10" as="targetPoint" />
          </mxGeometry>
        </mxCell>
        <mxCell id="UaO71o3nP_UbllHQvxvq-65" value="" style="group" vertex="1" connectable="0" parent="1">
          <mxGeometry x="200" y="330" width="60" height="10" as="geometry" />
        </mxCell>
        <mxCell id="UaO71o3nP_UbllHQvxvq-66" value="" style="rounded=0;whiteSpace=wrap;html=1;" vertex="1" parent="UaO71o3nP_UbllHQvxvq-65">
          <mxGeometry width="60" height="10" as="geometry" />
        </mxCell>
        <mxCell id="UaO71o3nP_UbllHQvxvq-67" value="" style="endArrow=none;html=1;rounded=0;exitX=0.25;exitY=1;exitDx=0;exitDy=0;entryX=0.25;entryY=0;entryDx=0;entryDy=0;" edge="1" parent="UaO71o3nP_UbllHQvxvq-65">
          <mxGeometry width="50" height="50" relative="1" as="geometry">
            <mxPoint x="20" y="10" as="sourcePoint" />
            <mxPoint x="20" as="targetPoint" />
          </mxGeometry>
        </mxCell>
        <mxCell id="UaO71o3nP_UbllHQvxvq-68" value="" style="endArrow=none;html=1;rounded=0;exitX=0.5;exitY=1;exitDx=0;exitDy=0;" edge="1" parent="UaO71o3nP_UbllHQvxvq-65" source="UaO71o3nP_UbllHQvxvq-66">
          <mxGeometry width="50" height="50" relative="1" as="geometry">
            <mxPoint x="-20" y="50" as="sourcePoint" />
            <mxPoint x="30" as="targetPoint" />
          </mxGeometry>
        </mxCell>
        <mxCell id="UaO71o3nP_UbllHQvxvq-69" value="" style="endArrow=none;html=1;rounded=0;exitX=0.5;exitY=1;exitDx=0;exitDy=0;" edge="1" parent="UaO71o3nP_UbllHQvxvq-65">
          <mxGeometry width="50" height="50" relative="1" as="geometry">
            <mxPoint x="40" y="10" as="sourcePoint" />
            <mxPoint x="40" as="targetPoint" />
            <Array as="points">
              <mxPoint x="40" />
            </Array>
          </mxGeometry>
        </mxCell>
        <mxCell id="UaO71o3nP_UbllHQvxvq-70" value="" style="endArrow=none;html=1;rounded=0;exitX=0.5;exitY=1;exitDx=0;exitDy=0;" edge="1" parent="UaO71o3nP_UbllHQvxvq-65">
          <mxGeometry width="50" height="50" relative="1" as="geometry">
            <mxPoint x="49.93000000000001" y="10" as="sourcePoint" />
            <mxPoint x="49.93000000000001" as="targetPoint" />
            <Array as="points">
              <mxPoint x="49.93000000000001" />
            </Array>
          </mxGeometry>
        </mxCell>
        <mxCell id="UaO71o3nP_UbllHQvxvq-71" value="" style="endArrow=none;html=1;rounded=0;exitX=0.25;exitY=1;exitDx=0;exitDy=0;entryX=0.25;entryY=0;entryDx=0;entryDy=0;" edge="1" parent="UaO71o3nP_UbllHQvxvq-65">
          <mxGeometry width="50" height="50" relative="1" as="geometry">
            <mxPoint x="10" y="10" as="sourcePoint" />
            <mxPoint x="10" as="targetPoint" />
          </mxGeometry>
        </mxCell>
        <mxCell id="UaO71o3nP_UbllHQvxvq-72" value="" style="group;rotation=-90;" vertex="1" connectable="0" parent="1">
          <mxGeometry x="250" y="290" width="60" height="10" as="geometry" />
        </mxCell>
        <mxCell id="UaO71o3nP_UbllHQvxvq-73" value="" style="rounded=0;whiteSpace=wrap;html=1;rotation=-90;" vertex="1" parent="UaO71o3nP_UbllHQvxvq-72">
          <mxGeometry width="60" height="10" as="geometry" />
        </mxCell>
        <mxCell id="UaO71o3nP_UbllHQvxvq-74" value="" style="endArrow=none;html=1;rounded=0;exitX=0.25;exitY=1;exitDx=0;exitDy=0;entryX=0.25;entryY=0;entryDx=0;entryDy=0;" edge="1" parent="UaO71o3nP_UbllHQvxvq-72">
          <mxGeometry width="50" height="50" relative="1" as="geometry">
            <mxPoint x="35" y="15" as="sourcePoint" />
            <mxPoint x="25" y="15" as="targetPoint" />
          </mxGeometry>
        </mxCell>
        <mxCell id="UaO71o3nP_UbllHQvxvq-75" value="" style="endArrow=none;html=1;rounded=0;exitX=0.5;exitY=1;exitDx=0;exitDy=0;" edge="1" parent="UaO71o3nP_UbllHQvxvq-72" source="UaO71o3nP_UbllHQvxvq-73">
          <mxGeometry width="50" height="50" relative="1" as="geometry">
            <mxPoint x="75" y="55" as="sourcePoint" />
            <mxPoint x="25" y="5" as="targetPoint" />
          </mxGeometry>
        </mxCell>
        <mxCell id="UaO71o3nP_UbllHQvxvq-76" value="" style="endArrow=none;html=1;rounded=0;exitX=0.5;exitY=1;exitDx=0;exitDy=0;" edge="1" parent="UaO71o3nP_UbllHQvxvq-72">
          <mxGeometry width="50" height="50" relative="1" as="geometry">
            <mxPoint x="35" y="-5" as="sourcePoint" />
            <mxPoint x="25" y="-5" as="targetPoint" />
            <Array as="points">
              <mxPoint x="25" y="-5" />
            </Array>
          </mxGeometry>
        </mxCell>
        <mxCell id="UaO71o3nP_UbllHQvxvq-77" value="" style="endArrow=none;html=1;rounded=0;exitX=0.5;exitY=1;exitDx=0;exitDy=0;" edge="1" parent="UaO71o3nP_UbllHQvxvq-72">
          <mxGeometry width="50" height="50" relative="1" as="geometry">
            <mxPoint x="35" y="-15" as="sourcePoint" />
            <mxPoint x="25" y="-15" as="targetPoint" />
            <Array as="points">
              <mxPoint x="25" y="-15" />
            </Array>
          </mxGeometry>
        </mxCell>
        <mxCell id="UaO71o3nP_UbllHQvxvq-78" value="" style="endArrow=none;html=1;rounded=0;exitX=0.25;exitY=1;exitDx=0;exitDy=0;entryX=0.25;entryY=0;entryDx=0;entryDy=0;" edge="1" parent="UaO71o3nP_UbllHQvxvq-72">
          <mxGeometry width="50" height="50" relative="1" as="geometry">
            <mxPoint x="35" y="25" as="sourcePoint" />
            <mxPoint x="25" y="25" as="targetPoint" />
          </mxGeometry>
        </mxCell>
        <mxCell id="UaO71o3nP_UbllHQvxvq-79" value="" style="endArrow=classic;html=1;rounded=0;entryX=0.5;entryY=0;entryDx=0;entryDy=0;" edge="1" target="UaO71o3nP_UbllHQvxvq-57" parent="1">
          <mxGeometry width="50" height="50" relative="1" as="geometry">
            <mxPoint x="230" y="200" as="sourcePoint" />
            <mxPoint x="260" y="150" as="targetPoint" />
          </mxGeometry>
        </mxCell>
        <mxCell id="UaO71o3nP_UbllHQvxvq-80" value="" style="endArrow=classic;html=1;rounded=0;entryX=0.5;entryY=0;entryDx=0;entryDy=0;" edge="1" parent="1">
          <mxGeometry width="50" height="50" relative="1" as="geometry">
            <mxPoint x="229.86" y="320" as="sourcePoint" />
            <mxPoint x="229.86" y="380" as="targetPoint" />
          </mxGeometry>
        </mxCell>
        <mxCell id="UaO71o3nP_UbllHQvxvq-81" value="Input t&lt;span style=&quot;font-size: 10px;&quot;&gt;2&lt;/span&gt;" style="text;html=1;align=center;verticalAlign=middle;whiteSpace=wrap;rounded=0;" vertex="1" parent="1">
          <mxGeometry x="230" y="210" width="60" height="30" as="geometry" />
        </mxCell>
        <mxCell id="UaO71o3nP_UbllHQvxvq-82" value="State" style="text;html=1;align=center;verticalAlign=middle;whiteSpace=wrap;rounded=0;" vertex="1" parent="1">
          <mxGeometry x="280" y="260" width="60" height="30" as="geometry" />
        </mxCell>
        <mxCell id="UaO71o3nP_UbllHQvxvq-83" value="Output t&lt;span style=&quot;font-size: 10px;&quot;&gt;&lt;sub&gt;2&lt;/sub&gt;&lt;/span&gt;" style="text;html=1;align=center;verticalAlign=middle;whiteSpace=wrap;rounded=0;" vertex="1" parent="1">
          <mxGeometry x="240" y="340" width="60" height="30" as="geometry" />
        </mxCell>
        <mxCell id="UaO71o3nP_UbllHQvxvq-84" value="" style="ellipse;whiteSpace=wrap;html=1;aspect=fixed;" vertex="1" parent="1">
          <mxGeometry x="338" y="260" width="60" height="60" as="geometry" />
        </mxCell>
        <mxCell id="UaO71o3nP_UbllHQvxvq-85" value="" style="group" vertex="1" connectable="0" parent="1">
          <mxGeometry x="338" y="240" width="60" height="10" as="geometry" />
        </mxCell>
        <mxCell id="UaO71o3nP_UbllHQvxvq-86" value="" style="rounded=0;whiteSpace=wrap;html=1;" vertex="1" parent="UaO71o3nP_UbllHQvxvq-85">
          <mxGeometry width="60" height="10" as="geometry" />
        </mxCell>
        <mxCell id="UaO71o3nP_UbllHQvxvq-87" value="" style="endArrow=none;html=1;rounded=0;exitX=0.25;exitY=1;exitDx=0;exitDy=0;entryX=0.25;entryY=0;entryDx=0;entryDy=0;" edge="1" parent="UaO71o3nP_UbllHQvxvq-85">
          <mxGeometry width="50" height="50" relative="1" as="geometry">
            <mxPoint x="20" y="10" as="sourcePoint" />
            <mxPoint x="20" as="targetPoint" />
          </mxGeometry>
        </mxCell>
        <mxCell id="UaO71o3nP_UbllHQvxvq-88" value="" style="endArrow=none;html=1;rounded=0;exitX=0.5;exitY=1;exitDx=0;exitDy=0;" edge="1" parent="UaO71o3nP_UbllHQvxvq-85" source="UaO71o3nP_UbllHQvxvq-86">
          <mxGeometry width="50" height="50" relative="1" as="geometry">
            <mxPoint x="-20" y="50" as="sourcePoint" />
            <mxPoint x="30" as="targetPoint" />
          </mxGeometry>
        </mxCell>
        <mxCell id="UaO71o3nP_UbllHQvxvq-89" value="" style="endArrow=none;html=1;rounded=0;exitX=0.5;exitY=1;exitDx=0;exitDy=0;" edge="1" parent="UaO71o3nP_UbllHQvxvq-85">
          <mxGeometry width="50" height="50" relative="1" as="geometry">
            <mxPoint x="40" y="10" as="sourcePoint" />
            <mxPoint x="40" as="targetPoint" />
            <Array as="points">
              <mxPoint x="40" />
            </Array>
          </mxGeometry>
        </mxCell>
        <mxCell id="UaO71o3nP_UbllHQvxvq-90" value="" style="endArrow=none;html=1;rounded=0;exitX=0.5;exitY=1;exitDx=0;exitDy=0;" edge="1" parent="UaO71o3nP_UbllHQvxvq-85">
          <mxGeometry width="50" height="50" relative="1" as="geometry">
            <mxPoint x="49.93000000000001" y="10" as="sourcePoint" />
            <mxPoint x="49.93000000000001" as="targetPoint" />
            <Array as="points">
              <mxPoint x="49.93000000000001" />
            </Array>
          </mxGeometry>
        </mxCell>
        <mxCell id="UaO71o3nP_UbllHQvxvq-91" value="" style="endArrow=none;html=1;rounded=0;exitX=0.25;exitY=1;exitDx=0;exitDy=0;entryX=0.25;entryY=0;entryDx=0;entryDy=0;" edge="1" parent="UaO71o3nP_UbllHQvxvq-85">
          <mxGeometry width="50" height="50" relative="1" as="geometry">
            <mxPoint x="10" y="10" as="sourcePoint" />
            <mxPoint x="10" as="targetPoint" />
          </mxGeometry>
        </mxCell>
        <mxCell id="UaO71o3nP_UbllHQvxvq-92" value="" style="group" vertex="1" connectable="0" parent="1">
          <mxGeometry x="338" y="330" width="60" height="10" as="geometry" />
        </mxCell>
        <mxCell id="UaO71o3nP_UbllHQvxvq-93" value="" style="rounded=0;whiteSpace=wrap;html=1;" vertex="1" parent="UaO71o3nP_UbllHQvxvq-92">
          <mxGeometry width="60" height="10" as="geometry" />
        </mxCell>
        <mxCell id="UaO71o3nP_UbllHQvxvq-94" value="" style="endArrow=none;html=1;rounded=0;exitX=0.25;exitY=1;exitDx=0;exitDy=0;entryX=0.25;entryY=0;entryDx=0;entryDy=0;" edge="1" parent="UaO71o3nP_UbllHQvxvq-92">
          <mxGeometry width="50" height="50" relative="1" as="geometry">
            <mxPoint x="20" y="10" as="sourcePoint" />
            <mxPoint x="20" as="targetPoint" />
          </mxGeometry>
        </mxCell>
        <mxCell id="UaO71o3nP_UbllHQvxvq-95" value="" style="endArrow=none;html=1;rounded=0;exitX=0.5;exitY=1;exitDx=0;exitDy=0;" edge="1" parent="UaO71o3nP_UbllHQvxvq-92" source="UaO71o3nP_UbllHQvxvq-93">
          <mxGeometry width="50" height="50" relative="1" as="geometry">
            <mxPoint x="-20" y="50" as="sourcePoint" />
            <mxPoint x="30" as="targetPoint" />
          </mxGeometry>
        </mxCell>
        <mxCell id="UaO71o3nP_UbllHQvxvq-96" value="" style="endArrow=none;html=1;rounded=0;exitX=0.5;exitY=1;exitDx=0;exitDy=0;" edge="1" parent="UaO71o3nP_UbllHQvxvq-92">
          <mxGeometry width="50" height="50" relative="1" as="geometry">
            <mxPoint x="40" y="10" as="sourcePoint" />
            <mxPoint x="40" as="targetPoint" />
            <Array as="points">
              <mxPoint x="40" />
            </Array>
          </mxGeometry>
        </mxCell>
        <mxCell id="UaO71o3nP_UbllHQvxvq-97" value="" style="endArrow=none;html=1;rounded=0;exitX=0.5;exitY=1;exitDx=0;exitDy=0;" edge="1" parent="UaO71o3nP_UbllHQvxvq-92">
          <mxGeometry width="50" height="50" relative="1" as="geometry">
            <mxPoint x="49.93000000000001" y="10" as="sourcePoint" />
            <mxPoint x="49.93000000000001" as="targetPoint" />
            <Array as="points">
              <mxPoint x="49.93000000000001" />
            </Array>
          </mxGeometry>
        </mxCell>
        <mxCell id="UaO71o3nP_UbllHQvxvq-98" value="" style="endArrow=none;html=1;rounded=0;exitX=0.25;exitY=1;exitDx=0;exitDy=0;entryX=0.25;entryY=0;entryDx=0;entryDy=0;" edge="1" parent="UaO71o3nP_UbllHQvxvq-92">
          <mxGeometry width="50" height="50" relative="1" as="geometry">
            <mxPoint x="10" y="10" as="sourcePoint" />
            <mxPoint x="10" as="targetPoint" />
          </mxGeometry>
        </mxCell>
        <mxCell id="UaO71o3nP_UbllHQvxvq-99" value="" style="group;rotation=-90;" vertex="1" connectable="0" parent="1">
          <mxGeometry x="388" y="290" width="60" height="10" as="geometry" />
        </mxCell>
        <mxCell id="UaO71o3nP_UbllHQvxvq-100" value="" style="rounded=0;whiteSpace=wrap;html=1;rotation=-90;" vertex="1" parent="UaO71o3nP_UbllHQvxvq-99">
          <mxGeometry width="60" height="10" as="geometry" />
        </mxCell>
        <mxCell id="UaO71o3nP_UbllHQvxvq-101" value="" style="endArrow=none;html=1;rounded=0;exitX=0.25;exitY=1;exitDx=0;exitDy=0;entryX=0.25;entryY=0;entryDx=0;entryDy=0;" edge="1" parent="UaO71o3nP_UbllHQvxvq-99">
          <mxGeometry width="50" height="50" relative="1" as="geometry">
            <mxPoint x="35" y="15" as="sourcePoint" />
            <mxPoint x="25" y="15" as="targetPoint" />
          </mxGeometry>
        </mxCell>
        <mxCell id="UaO71o3nP_UbllHQvxvq-102" value="" style="endArrow=none;html=1;rounded=0;exitX=0.5;exitY=1;exitDx=0;exitDy=0;" edge="1" parent="UaO71o3nP_UbllHQvxvq-99" source="UaO71o3nP_UbllHQvxvq-100">
          <mxGeometry width="50" height="50" relative="1" as="geometry">
            <mxPoint x="75" y="55" as="sourcePoint" />
            <mxPoint x="25" y="5" as="targetPoint" />
          </mxGeometry>
        </mxCell>
        <mxCell id="UaO71o3nP_UbllHQvxvq-103" value="" style="endArrow=none;html=1;rounded=0;exitX=0.5;exitY=1;exitDx=0;exitDy=0;" edge="1" parent="UaO71o3nP_UbllHQvxvq-99">
          <mxGeometry width="50" height="50" relative="1" as="geometry">
            <mxPoint x="35" y="-5" as="sourcePoint" />
            <mxPoint x="25" y="-5" as="targetPoint" />
            <Array as="points">
              <mxPoint x="25" y="-5" />
            </Array>
          </mxGeometry>
        </mxCell>
        <mxCell id="UaO71o3nP_UbllHQvxvq-104" value="" style="endArrow=none;html=1;rounded=0;exitX=0.5;exitY=1;exitDx=0;exitDy=0;" edge="1" parent="UaO71o3nP_UbllHQvxvq-99">
          <mxGeometry width="50" height="50" relative="1" as="geometry">
            <mxPoint x="35" y="-15" as="sourcePoint" />
            <mxPoint x="25" y="-15" as="targetPoint" />
            <Array as="points">
              <mxPoint x="25" y="-15" />
            </Array>
          </mxGeometry>
        </mxCell>
        <mxCell id="UaO71o3nP_UbllHQvxvq-105" value="" style="endArrow=none;html=1;rounded=0;exitX=0.25;exitY=1;exitDx=0;exitDy=0;entryX=0.25;entryY=0;entryDx=0;entryDy=0;" edge="1" parent="UaO71o3nP_UbllHQvxvq-99">
          <mxGeometry width="50" height="50" relative="1" as="geometry">
            <mxPoint x="35" y="25" as="sourcePoint" />
            <mxPoint x="25" y="25" as="targetPoint" />
          </mxGeometry>
        </mxCell>
        <mxCell id="UaO71o3nP_UbllHQvxvq-106" value="" style="endArrow=classic;html=1;rounded=0;entryX=0.5;entryY=0;entryDx=0;entryDy=0;" edge="1" target="UaO71o3nP_UbllHQvxvq-84" parent="1">
          <mxGeometry width="50" height="50" relative="1" as="geometry">
            <mxPoint x="368" y="200" as="sourcePoint" />
            <mxPoint x="398" y="150" as="targetPoint" />
          </mxGeometry>
        </mxCell>
        <mxCell id="UaO71o3nP_UbllHQvxvq-107" value="" style="endArrow=classic;html=1;rounded=0;entryX=0.5;entryY=0;entryDx=0;entryDy=0;" edge="1" parent="1">
          <mxGeometry width="50" height="50" relative="1" as="geometry">
            <mxPoint x="367.86" y="320" as="sourcePoint" />
            <mxPoint x="367.86" y="380" as="targetPoint" />
          </mxGeometry>
        </mxCell>
        <mxCell id="UaO71o3nP_UbllHQvxvq-108" value="Input t&lt;span style=&quot;font-size: 10px;&quot;&gt;3&lt;/span&gt;" style="text;html=1;align=center;verticalAlign=middle;whiteSpace=wrap;rounded=0;" vertex="1" parent="1">
          <mxGeometry x="370" y="210" width="60" height="30" as="geometry" />
        </mxCell>
        <mxCell id="UaO71o3nP_UbllHQvxvq-109" value="State" style="text;html=1;align=center;verticalAlign=middle;whiteSpace=wrap;rounded=0;" vertex="1" parent="1">
          <mxGeometry x="418" y="260" width="60" height="30" as="geometry" />
        </mxCell>
        <mxCell id="UaO71o3nP_UbllHQvxvq-110" value="Output t&lt;span style=&quot;font-size: 10px;&quot;&gt;&lt;sub&gt;3&lt;/sub&gt;&lt;/span&gt;" style="text;html=1;align=center;verticalAlign=middle;whiteSpace=wrap;rounded=0;" vertex="1" parent="1">
          <mxGeometry x="378" y="340" width="60" height="30" as="geometry" />
        </mxCell>
        <mxCell id="UaO71o3nP_UbllHQvxvq-113" value="time" style="endArrow=classic;html=1;rounded=0;" edge="1" parent="1">
          <mxGeometry width="50" height="50" relative="1" as="geometry">
            <mxPoint x="80" y="400" as="sourcePoint" />
            <mxPoint x="410" y="400" as="targetPoint" />
          </mxGeometry>
        </mxCell>
        <mxCell id="UaO71o3nP_UbllHQvxvq-114" value="tanh" style="rounded=0;whiteSpace=wrap;html=1;fontSize=10;align=center;" vertex="1" parent="1">
          <mxGeometry x="210" y="85" width="40" height="10" as="geometry" />
        </mxCell>
        <mxCell id="UaO71o3nP_UbllHQvxvq-117" value="" style="endArrow=classic;html=1;rounded=0;entryX=0.5;entryY=0;entryDx=0;entryDy=0;exitX=0.5;exitY=0;exitDx=0;exitDy=0;fontSize=6;curved=0;" edge="1" parent="1" source="UaO71o3nP_UbllHQvxvq-1" target="UaO71o3nP_UbllHQvxvq-114">
          <mxGeometry width="50" height="50" relative="1" as="geometry">
            <mxPoint x="230" y="100" as="sourcePoint" />
            <mxPoint x="280" y="50" as="targetPoint" />
          </mxGeometry>
        </mxCell>
        <mxCell id="UaO71o3nP_UbllHQvxvq-119" value="" style="endArrow=classic;html=1;rounded=0;entryX=0;entryY=0.5;entryDx=0;entryDy=0;exitX=0;exitY=0.5;exitDx=0;exitDy=0;" edge="1" parent="1" source="UaO71o3nP_UbllHQvxvq-1" target="UaO71o3nP_UbllHQvxvq-114">
          <mxGeometry width="50" height="50" relative="1" as="geometry">
            <mxPoint x="230" y="100" as="sourcePoint" />
            <mxPoint x="280" y="50" as="targetPoint" />
          </mxGeometry>
        </mxCell>
        <mxCell id="UaO71o3nP_UbllHQvxvq-121" value="" style="endArrow=classic;html=1;rounded=0;entryX=0.5;entryY=1;entryDx=0;entryDy=0;exitX=0.5;exitY=1;exitDx=0;exitDy=0;" edge="1" parent="1" source="UaO71o3nP_UbllHQvxvq-114" target="UaO71o3nP_UbllHQvxvq-1">
          <mxGeometry width="50" height="50" relative="1" as="geometry">
            <mxPoint x="230" y="100" as="sourcePoint" />
            <mxPoint x="280" y="50" as="targetPoint" />
          </mxGeometry>
        </mxCell>
        <mxCell id="UaO71o3nP_UbllHQvxvq-122" value="" style="endArrow=classic;html=1;rounded=0;entryX=1;entryY=0.5;entryDx=0;entryDy=0;exitX=1;exitY=0.5;exitDx=0;exitDy=0;" edge="1" parent="1" source="UaO71o3nP_UbllHQvxvq-114" target="UaO71o3nP_UbllHQvxvq-1">
          <mxGeometry width="50" height="50" relative="1" as="geometry">
            <mxPoint x="240" y="105" as="sourcePoint" />
            <mxPoint x="240" y="130" as="targetPoint" />
          </mxGeometry>
        </mxCell>
      </root>
    </mxGraphModel>
  </diagram>
</mxfile>
